# xmcd
#
# Track frame offsets:
#	150
#	13646
#	24012
#	41327
#	59245
#	76112
#	85760
#	94932
#	105977
#	117629
#	125320
#	134538
#	151065
#	166319
#
# Disc length: 2481 seconds
#
# Revision: 1
# Processed by: cddbd v1.5.2PL0 Copyright (c) Steve Scherf et al.
# Submitted via: audiograbber 1.83.01
#
DISCID=a309af0e
DTITLE=Various Artist - Deutsche Truckerhits  CD 2
DYEAR=1900
DGENRE=Country
TTITLE0=Freddy Quinn - Oh Nur Mit Dir (Oh, Lonesome Me)
TTITLE1=Jonny Hill - Heut' Nacht, Da Brauch' Ich Dich
TTITLE2=Gudrun Lange and Kactus - In Einer Fremden Stadt
TTITLE3=Gunter Gabriel - Intercity Linie Nr. 4
TTITLE4=Bruce Low - Tabak Und Rum
TTITLE5=Martin Lauer - Die Letzte Rose Der Pr‰rie
TTITLE6=Mary Roos - 7000 Rinder
TTITLE7=Die Muntermacher - Country Song
TTITLE8=Benny Maro - Rosalie Aus Tennessee
TTITLE9=Billy Vaughn - Die Alte Ranch Dort In Der Pr‰rie
TTITLE10=Die Colorado Singers and Boy Cliff - Tom Dooley
TTITLE11=Ralf Paulsen - high noon - 12 uhr mittags
TTITLE12=new mavericks - auf eigene faust
TTITLE13=Nancy Wood - Lieder Der Straﬂe
EXTD=
EXTT0=
EXTT1=
EXTT2=
EXTT3=
EXTT4=
EXTT5=
EXTT6=
EXTT7=
EXTT8=
EXTT9=
EXTT10=
EXTT11=
EXTT12=
EXTT13=
PLAYORDER=
